<?xml version="1.0" encoding="utf-8"?>
<!-- Generator: Adobe Illustrator 18.1.1, SVG Export Plug-In . SVG Version: 6.00 Build 0)  -->
<svg version="1.1" id="Слой_1" xmlns="http://www.w3.org/2000/svg" xmlns:xlink="http://www.w3.org/1999/xlink" x="0px" y="0px"
	 viewBox="0 0 260 36" enable-background="new 0 0 260 36" xml:space="preserve">
<path fill="#FFFFFF" d="M51.3,0.8c6.5,0,11.3,2.7,11.3,9.9c0,7.8-5,10.4-11.6,10.4h-9.2v14.1h-4.5V0.8H51.3z M41.8,17.3h8.6
	c4.3,0,7.7-1.2,7.7-6.3c0-5.5-3.9-6.3-8.3-6.3h-8V17.3z"/>
<path fill="#FFFFFF" d="M98.6,17.7c0,10.1-5.5,18.3-16.2,18.3c-10.9,0-16.2-8.4-16.2-18.4C66.1,6.9,72.5,0,82.3,0
	C92.8,0,98.6,7.5,98.6,17.7z M70.6,17.9c0,8.6,4.6,14.1,11.8,14.1c7.1,0,11.7-5.6,11.7-14.1c0-8.5-4.6-14-11.8-14
	C74.3,4,70.6,10.6,70.6,17.9z"/>
<path fill="#FFFFFF" d="M123.9,10.9c-0.5-5-3.4-7-8.4-7c-4.9,0-7.7,2.1-7.7,5.7c0,3.9,4,4.7,9.2,5.8c5.5,1.2,12.6,2.9,12.6,10.1
	c0,7.6-6.7,10.4-13.2,10.4c-8.1,0-14.1-3.8-14.1-12.1h4.3c0.2,6.2,4.7,8.4,10.1,8.4c4,0,8.4-1.4,8.4-6.3c0-4.4-4.3-5.3-9.9-6.6
	c-5.5-1.3-11.8-2.2-11.8-9.4c0-7,6.2-9.8,12.3-9.8c7.2,0,12.2,3.4,12.4,10.8H123.9z"/>
<path fill="#FFFFFF" d="M158.6,4.8h-11.4v30.4h-4.5V4.8h-11.4v-4h27.3V4.8z"/>
<path fill="#FFFFFF" d="M168.7,0.8l10.9,29.1l10.5-29.1h6.2v34.3h-4.2V6.5l-10.6,28.6h-3.9L166.8,6.5v28.6h-4.3V0.8H168.7z"/>
<path fill="#FFFFFF" d="M227.4,4.8h-19v10.8h17.8v3.8h-17.8v11.9h19.3v4h-23.7V0.8h23.5V4.8z"/>
<path fill="#FFFFFF" d="M237.8,0.8l17.9,27.9V0.8h4.3v34.3H255L237.1,7.6v27.5h-4.3V0.8H237.8z"/>
<path fill="#FFFFFF" d="M33.1,12.7L22,1.4h-6.2L33.1,19V12.7z"/>
<path fill="#FFFFFF" d="M33.1,22.4l-20.7-21H6.2l26.9,27.3V22.4z"/>
<path fill="#FFFFFF" d="M33.1,35v-3L2.8,1.4H0v3.4L29.8,35H33.1z"/>
<path fill="#FFFFFF" d="M26.5,35L0,8.2v6.3L20.3,35H26.5z"/>
<path fill="#FFFFFF" d="M16.9,35L0,17.9v6.3L10.7,35H16.9z"/>
<path fill="#FFFFFF" d="M7.3,35L0,27.6v6.3L1.1,35H7.3z"/>
<path fill="#FFFFFF" d="M33.1,3l-1.5-1.6h-6.2l7.8,7.9V3z"/>
</svg>
